<?xml version="1.0" standalone="no"?>
<!DOCTYPE svg PUBLIC "-//W3C//DTD SVG 20010904//EN"
 "http://www.w3.org/TR/2001/REC-SVG-20010904/DTD/svg10.dtd">
<svg version="1.0" xmlns="http://www.w3.org/2000/svg"
 width="864.000000pt" height="864.000000pt" viewBox="0 0 864.000000 864.000000"
 preserveAspectRatio="xMidYMid meet">
<metadata>
Created by potrace 1.11, written by Peter Selinger 2001-2013
</metadata>
<g transform="translate(0.000000,864.000000) scale(0.100000,-0.100000)"
fill="#000000" stroke="none">
<path d="M6904 8116 c-271 -286 -639 -683 -819 -881 -180 -198 -342 -375 -360
-394 l-33 -34 -256 112 c-316 138 -348 149 -621 212 -121 28 -308 70 -415 95
l-195 45 -335 -16 c-184 -9 -338 -21 -341 -27 -3 -5 -12 -54 -19 -109 -7 -55
-18 -106 -24 -113 -11 -14 -217 -78 -605 -187 l-223 -64 6 -55 c3 -30 10 -93
16 -139 5 -47 9 -85 7 -86 -1 -1 -188 -88 -414 -195 -227 -106 -413 -194 -413
-196 0 -1 34 -65 75 -142 41 -77 75 -143 75 -147 0 -4 -102 -126 -226 -273
l-225 -265 72 -73 72 -72 -167 -262 c-172 -270 -287 -480 -263 -480 7 0 60 7
117 15 56 9 104 14 106 12 2 -2 -43 -141 -101 -309 -58 -168 -105 -311 -105
-317 0 -8 21 -9 70 -5 39 4 70 4 70 2 0 -3 -61 -165 -136 -359 -75 -195 -139
-363 -142 -373 -5 -18 0 -19 93 -12 79 6 97 5 92 -6 -2 -7 -37 -93 -77 -191
l-73 -178 77 -78 77 -77 -66 -188 c-59 -170 -64 -193 -59 -242 6 -47 11 -56
40 -73 63 -38 67 -26 -112 -410 -90 -195 -162 -356 -160 -359 3 -2 64 30 136
73 72 42 133 75 135 73 2 -2 -34 -123 -80 -268 -47 -146 -85 -269 -85 -273 0
-5 43 -6 95 -2 52 4 95 4 95 1 0 -4 -72 -187 -160 -408 -88 -221 -158 -403
-156 -405 2 -2 150 111 329 251 179 141 327 256 330 256 2 0 10 -36 18 -80 7
-44 16 -85 20 -91 4 -8 80 31 225 114 148 85 221 122 225 114 4 -7 12 -45 20
-85 7 -40 16 -75 20 -77 4 -3 126 94 272 215 146 121 268 220 270 220 3 0 8
-22 12 -48 12 -86 3 -88 237 47 117 67 217 122 223 122 5 0 15 -26 22 -57 8
-32 15 -59 17 -61 2 -3 115 55 251 127 185 99 249 129 255 119 5 -7 12 -40 15
-73 4 -34 11 -67 15 -75 5 -9 73 46 243 198 130 116 238 211 241 211 2 0 25
-36 51 -80 26 -44 49 -80 51 -80 3 0 110 95 240 211 l235 211 80 -72 c43 -39
83 -70 88 -68 5 2 98 104 206 228 109 124 203 232 211 240 12 12 26 8 108 -35
52 -28 97 -48 99 -45 3 3 83 154 177 335 95 182 173 331 174 332 0 1 59 -23
130 -53 71 -30 133 -51 136 -47 4 5 23 107 44 228 62 377 118 700 120 702 1 1
71 -2 155 -8 84 -6 154 -9 156 -7 1 2 -7 167 -19 367 -19 323 -20 378 -9 480
8 63 15 117 17 119 3 2 56 11 120 19 94 13 116 19 116 32 0 18 -78 582 -86
619 -2 12 -11 22 -19 22 -8 0 -25 15 -38 33 -29 39 -857 1591 -857 1606 0 5
124 187 275 403 263 375 279 396 354 453 283 217 570 501 714 706 64 90 123
212 142 290 16 70 19 125 8 132 -5 3 -229 -230 -499 -517z"/>
</g>
</svg>
