<?xml version="1.0" encoding="UTF-8"?>
<svg width="260px" height="47px" viewBox="0 0 260 47" version="1.1" xmlns="http://www.w3.org/2000/svg" xmlns:xlink="http://www.w3.org/1999/xlink">
    <defs>
        <path d="M10.3369712,39 C10.7684956,39 11.0561785,38.9378866 11.20002,38.8136599 C11.3438615,38.6894332 11.4157822,38.3657899 11.4157822,37.84273 C11.4157822,37.2935171 11.3536689,36.9175678 11.2294421,36.7148821 C11.1052154,36.5121964 10.8861841,36.3520093 10.5723481,36.2343208 C9.91852327,35.9989438 9.59161084,35.5020369 9.59161084,34.7436001 L9.59161084,34.7436001 L9.59161084,28.2118896 L12.0434541,28.2118896 C13.2334154,28.2118896 14.354725,27.9961274 15.4073831,27.564603 C16.4600411,27.1330786 17.3884724,26.5773275 18.192677,25.8973496 C18.9968816,25.2173717 19.663783,24.1581755 20.1933811,22.7197607 C20.7229792,21.281346 20.9877783,19.6402456 20.9877783,17.7964595 C20.9877783,14.5273351 20.1279986,11.9676108 18.4084392,10.1172864 C16.6888798,8.266962 14.3841471,7.3417998 11.4942412,7.3417998 L11.4942412,7.3417998 L1.45149121,7.3417998 C1.11150228,7.3417998 0.892470947,7.40391317 0.794397217,7.52813989 C0.696323486,7.65236662 0.647286621,7.91062744 0.647286621,8.30292236 L0.647286621,8.30292236 L0.666901367,9.22481543 C0.679977865,9.63018685 0.869587077,9.93094629 1.235729,10.1270938 C1.92878337,10.4670827 2.27531055,10.9182218 2.27531055,11.4805112 L2.27531055,11.4805112 L2.27531055,35.1751245 C2.27531055,35.475884 2.23281193,35.688377 2.1478147,35.8126038 C2.06281746,35.9368305 1.85032438,36.0512498 1.51033545,36.1558618 C1.13111702,36.2735503 0.908816569,36.4075844 0.843434082,36.5579641 C0.778051595,36.7083438 0.745360352,37.1104461 0.745360352,37.764271 C0.745360352,38.5880903 0.980737305,39 1.45149121,39 L1.45149121,39 L10.3369712,39 Z M10.9646431,25.9561938 L9.59161084,25.9561938 L9.59161084,9.51903662 L10.5919629,9.51903662 C12.0565306,9.51903662 12.7888145,10.6174624 12.7888145,12.814314 L12.7888145,12.814314 L12.7888145,22.6020723 C12.7888145,23.80511 12.6024744,24.6648897 12.2297942,25.1814114 C11.857114,25.697933 11.435397,25.9561938 10.9646431,25.9561938 L10.9646431,25.9561938 Z" id="path-1"></path>
        <path d="M25.1985603,10.9312983 C26.4539041,10.9312983 27.5752137,10.659961 28.5624893,10.1172864 C29.5497649,9.57461174 30.0434026,8.91097949 30.0434026,8.12638965 C30.0434026,7.13257585 29.3045805,6.63566895 27.8269363,6.63566895 C26.7285105,6.63566895 25.61047,6.86450765 24.4728147,7.32218506 C23.3351595,7.77986247 22.7663318,8.44022559 22.7663318,9.30327441 C22.7663318,10.3886237 23.5770747,10.9312983 25.1985603,10.9312983 Z M30.4356976,39 C30.788763,39 30.9979869,38.9280793 31.0633694,38.7842378 C31.1287519,38.6403963 31.1614432,38.2088719 31.1614432,37.4896646 C31.1614432,36.8619927 30.9260662,36.4566213 30.4553123,36.2735503 C30.2591648,36.1950913 30.1414764,36.1100941 30.1022469,36.0185586 C30.0630174,35.9270231 30.0434026,35.7243374 30.0434026,35.4105015 L30.0434026,35.4105015 L30.0434026,12.8535435 C30.0434026,12.422019 29.8211022,12.2062568 29.3765013,12.2062568 L29.3765013,12.2062568 L23.1193973,12.2062568 C22.5963374,12.2062568 22.3348074,12.422019 22.3348074,12.8535435 L22.3348074,12.8535435 L22.3348074,14.1481167 C22.3348074,14.4619526 22.4524959,14.6515618 22.6878728,14.7169443 C23.2501622,14.8738623 23.5313069,15.3315397 23.5313069,16.0899766 L23.5313069,16.0899766 L23.5313069,35.6458784 C23.5313069,36.0250968 23.322083,36.2866268 22.9036351,36.4304683 C22.5636461,36.5481567 22.3936517,36.9600664 22.3936517,37.6661973 C22.3936517,38.2546396 22.4198046,38.6175125 22.4721106,38.7548157 C22.5244166,38.8921189 22.6421051,38.973847 22.8251761,39 L22.8251761,39 L30.4356976,39 Z" id="path-2"></path>
        <path d="M41.024711,39 C41.2993174,39 41.4595045,38.9803853 41.5052723,38.9411558 C41.55104,38.9019263 41.5739239,38.7123171 41.5739239,38.3723281 C41.5739239,37.8231152 41.5281561,37.4438968 41.4366207,37.2346729 C41.3450852,37.0254489 41.1489377,36.8489162 40.8481783,36.7050747 C40.2335829,36.4043153 39.9262852,35.9074084 39.9262852,35.214354 L39.9262852,35.214354 L39.9262852,14.8934771 L41.1423995,14.8934771 C41.6000769,14.8934771 41.8289156,14.6842531 41.8289156,14.2658052 L41.8289156,14.2658052 L41.8289156,12.8535435 C41.8289156,12.422019 41.6000769,12.2062568 41.1423995,12.2062568 L41.1423995,12.2062568 L39.9262852,12.2062568 L39.9262852,7.69486523 C39.9262852,7.23718783 39.7562907,7.00834912 39.4163018,7.00834912 L39.4163018,7.00834912 L38.1413433,7.00834912 C37.8405839,7.00834912 37.6411673,7.05084774 37.5430936,7.13584497 C37.4450198,7.2208422 37.3632917,7.44641178 37.2979092,7.81255371 C37.1148383,8.84559701 36.5460106,9.81325781 35.5914263,10.7155361 C34.636842,11.6178145 33.6887959,12.1408743 32.7472881,12.2847158 C32.4596052,12.3239453 32.2863416,12.3827896 32.2274974,12.4612485 C32.1686531,12.5397075 32.139231,12.709702 32.139231,12.9712319 L32.139231,12.9712319 L32.139231,14.3834937 C32.139231,14.6188706 32.1686531,14.7627121 32.2274974,14.8150181 C32.2863416,14.8673241 32.4269139,14.8934771 32.6492144,14.8934771 L32.6492144,14.8934771 L33.4141895,14.8934771 L33.4141895,35.214354 C33.4141895,36.9012222 33.8849434,38.1631042 34.8264512,39 L34.8264512,39 L41.024711,39 Z" id="path-3"></path>
        <path d="M51.5517541,39.2746064 C54.0493651,39.2746064 56.1350664,38.0748378 57.8088581,35.6753005 C59.4826497,33.2757633 60.3195456,29.7353016 60.3195456,25.0539155 C60.3195456,20.7125184 59.4957262,17.4401249 57.8480875,15.2367351 C56.2004489,13.0333453 54.1474388,11.9316504 51.6890573,11.9316504 C49.1129873,11.9316504 47.0370933,13.0954587 45.4613754,15.4230752 C43.8856575,17.7506917 43.0977985,21.1832723 43.0977985,25.7208169 C43.0977985,28.8984058 43.4410565,31.402555 44.1275727,33.2332646 C44.8140888,35.0639743 45.7915569,36.528542 47.0599772,37.6269678 C48.3283974,38.7253936 49.8256564,39.2746064 51.5517541,39.2746064 Z M51.5517541,36.6658452 C50.6233227,36.6658452 50.1591071,35.6785697 50.1591071,33.7040186 L50.1591071,33.7040186 L50.1591071,17.4041646 C50.1591071,15.4165369 50.6690905,14.4227231 51.6890573,14.4227231 C52.6305651,14.4227231 53.101319,15.233466 53.101319,16.8549517 L53.101319,16.8549517 L53.101319,33.7040186 C53.101319,35.6785697 52.5847973,36.6658452 51.5517541,36.6658452 Z" id="path-4"></path>
        <path d="M69.8655361,39 C70.33629,39 70.5716669,38.764623 70.5716669,38.2938691 L70.5716669,38.2938691 L70.5716669,37.2346729 C70.5716669,36.9339134 70.4409019,36.68546 70.179372,36.4893125 C69.7740006,36.1754766 69.5713149,35.8420259 69.5713149,35.4889604 L69.5713149,35.4889604 L69.5713149,17.0903286 C69.7020798,17.0249461 69.8001536,16.9726401 69.8655361,16.9334106 C70.5716669,16.5541922 71.0685738,16.364583 71.3562568,16.364583 C72.0623876,16.364583 72.4154531,16.7961074 72.4154531,17.6591562 L72.4154531,17.6591562 L72.4154531,36.1362471 C72.4154531,37.3392848 72.7750567,38.2938691 73.4942641,39 L73.4942641,39 L79.2021552,39 C79.6467561,39 79.8690566,38.764623 79.8690566,38.2938691 L79.8690566,38.2938691 L79.8690566,37.1169844 C79.8690566,36.9077604 79.7513681,36.7050747 79.5159911,36.5089272 C79.1236962,36.1950913 78.9275488,35.8551024 78.9275488,35.4889604 L78.9275488,35.4889604 L78.9275488,17.7768447 C78.9275488,17.3583968 79.0746594,17.0086005 79.3688805,16.7274558 C79.6631017,16.4463111 80.0848188,16.3057388 80.6340317,16.3057388 C81.510157,16.3057388 81.9482197,16.7568779 81.9482197,17.6591562 L81.9482197,17.6591562 L81.9482197,36.1362471 C81.9482197,37.4308203 82.3405146,38.3854046 83.1251044,39 L83.1251044,39 L88.7153071,39 C89.1468315,39 89.3625937,38.764623 89.3625937,38.2938691 L89.3625937,38.2938691 L89.3625937,37.3523613 C89.3625937,36.9862194 89.1991375,36.6200775 88.872225,36.2539355 C88.5845421,35.9270231 88.4407006,35.5935724 88.4407006,35.2535835 L88.4407006,35.2535835 L88.4407006,16.6784189 C88.4407006,15.7238346 88.2380149,14.8444402 87.8326435,14.0402356 C87.4272721,13.236031 86.900943,12.683549 86.2536564,12.3827896 C85.6063698,12.0820301 84.9231228,11.9316504 84.2039155,11.9316504 C82.5562768,11.9316504 80.7974879,12.9516172 78.9275488,14.9915508 C77.933735,12.9516172 76.5541645,11.9316504 74.7888373,11.9316504 C73.0365867,11.9316504 71.2974125,12.8927729 69.5713149,14.8150181 L69.5713149,14.8150181 L69.5713149,12.8339287 C69.5713149,12.4154808 69.3424762,12.2062568 68.8847988,12.2062568 L68.8847988,12.2062568 L62.7257685,12.2062568 C62.2157851,12.2062568 61.9607934,12.4154808 61.9607934,12.8339287 L61.9607934,12.8339287 L61.9607934,13.8342808 C61.9607934,14.2265757 62.0980966,14.4815674 62.3727031,14.5992559 C62.8303805,14.7954033 63.0592192,15.155007 63.0592192,15.6780669 L63.0592192,15.6780669 L63.0592192,35.4889604 C63.0592192,35.7112609 62.86961,36.0120203 62.4903915,36.3912388 C62.1373261,36.7573807 61.9607934,37.0385254 61.9607934,37.2346729 L61.9607934,37.2346729 L61.9607934,38.5292461 C61.9607934,38.843082 62.1373261,39 62.4903915,39 L62.4903915,39 L69.8655361,39 Z" id="path-5"></path>
        <path d="M98.5162991,39 C99.1570475,39 99.4774216,38.7776995 99.4774216,38.3330986 L99.4774216,38.3330986 L99.4774216,37.3327466 C99.4774216,36.9142987 99.3401184,36.6266157 99.065512,36.4696978 C98.6078346,36.2081678 98.3789959,35.8420259 98.3789959,35.371272 L98.3789959,35.371272 L98.3789959,17.0707139 C99.0197442,16.495348 99.6147249,16.207665 100.163938,16.207665 C101.000834,16.207665 101.419282,16.7176484 101.419282,17.7376152 L101.419282,17.7376152 L101.419282,36.3912388 C101.419282,37.4635116 101.811576,38.3330986 102.596166,39 L102.596166,39 L108.10791,39 C108.421746,39 108.627701,38.9411558 108.725774,38.8234673 C108.823848,38.7057788 108.872885,38.3461751 108.872885,37.7446562 C108.872885,36.9862194 108.722505,36.5154655 108.421746,36.3323945 C108.094833,36.1100941 107.931377,35.7897199 107.931377,35.371272 L107.931377,35.371272 L107.931377,16.5803452 C107.931377,15.2465425 107.571774,14.1383093 106.852566,13.2556458 C106.133359,12.3729822 105.087239,11.9316504 103.714207,11.9316504 C101.713503,11.9316504 99.9350991,12.9123877 98.3789959,14.8738623 L98.3789959,14.8738623 L98.3789959,12.814314 C98.3789959,12.5658605 98.3463046,12.4024043 98.2809221,12.3239453 C98.2155396,12.2454863 98.0455452,12.2062568 97.7709387,12.2062568 L97.7709387,12.2062568 L91.3765315,12.2062568 C91.0103896,12.2062568 90.8273186,12.4089425 90.8273186,12.814314 L90.8273186,12.814314 L90.8273186,13.8538955 C90.8273186,14.1546549 90.9515453,14.3638789 91.1999988,14.4815674 C91.6445997,14.6907913 91.8669002,15.024242 91.8669002,15.4819194 L91.8669002,15.4819194 L91.8669002,34.6651411 C91.8669002,35.3320425 91.8211324,35.7635669 91.7295969,35.9597144 C91.6380615,36.1558618 91.4353757,36.3650858 91.1215398,36.5873862 C90.8861629,36.7443042 90.7684744,37.0123724 90.7684744,37.3915908 L90.7684744,37.3915908 L90.7684744,38.1173364 C90.7684744,38.5096313 90.8142421,38.7548157 90.9057776,38.8528894 C90.9973131,38.9509631 91.2130753,39 91.5530642,39 L91.5530642,39 L98.5162991,39 Z" id="path-6"></path>
        <path d="M113.041409,10.9312983 C114.296753,10.9312983 115.418062,10.659961 116.405338,10.1172864 C117.392613,9.57461174 117.886251,8.91097949 117.886251,8.12638965 C117.886251,7.13257585 117.147429,6.63566895 115.669785,6.63566895 C114.571359,6.63566895 113.453319,6.86450765 112.315663,7.32218506 C111.178008,7.77986247 110.60918,8.44022559 110.60918,9.30327441 C110.60918,10.3886237 111.419923,10.9312983 113.041409,10.9312983 Z M118.278546,39 C118.631612,39 118.840836,38.9280793 118.906218,38.7842378 C118.971601,38.6403963 119.004292,38.2088719 119.004292,37.4896646 C119.004292,36.8619927 118.768915,36.4566213 118.298161,36.2735503 C118.102013,36.1950913 117.984325,36.1100941 117.945095,36.0185586 C117.905866,35.9270231 117.886251,35.7243374 117.886251,35.4105015 L117.886251,35.4105015 L117.886251,12.8535435 C117.886251,12.422019 117.663951,12.2062568 117.21935,12.2062568 L117.21935,12.2062568 L110.962246,12.2062568 C110.439186,12.2062568 110.177656,12.422019 110.177656,12.8535435 L110.177656,12.8535435 L110.177656,14.1481167 C110.177656,14.4619526 110.295345,14.6515618 110.530721,14.7169443 C111.093011,14.8738623 111.374156,15.3315397 111.374156,16.0899766 L111.374156,16.0899766 L111.374156,35.6458784 C111.374156,36.0250968 111.164932,36.2866268 110.746484,36.4304683 C110.406495,36.5481567 110.2365,36.9600664 110.2365,37.6661973 C110.2365,38.2546396 110.262653,38.6175125 110.314959,38.7548157 C110.367265,38.8921189 110.484954,38.973847 110.668025,39 L110.668025,39 L118.278546,39 Z" id="path-7"></path>
        <path d="M128.102585,39 C128.599491,39 128.847945,38.7580848 128.847945,38.2742544 L128.847945,38.2742544 L128.847945,37.2346729 C128.847945,36.8685309 128.71718,36.6135392 128.45565,36.4696978 C128.115661,36.2735503 127.945667,35.9989438 127.945667,35.6458784 L127.945667,35.6458784 L127.945667,30.3891265 L129.318699,27.6626768 L131.55478,37.7054268 C131.750927,38.5684756 132.182452,39 132.849353,39 L132.849353,39 L138.12572,39 C138.661856,39 138.929924,38.7580848 138.929924,38.2742544 L138.929924,38.2742544 L138.929924,37.2346729 C138.929924,36.8554544 138.786083,36.5743097 138.4984,36.3912388 C138.066876,36.1035558 137.792269,35.7177992 137.674581,35.2339688 L137.674581,35.2339688 L133.49664,19.1106475 L134.869672,16.207665 C135.105049,15.7238346 135.516959,15.338078 136.105401,15.050395 C136.484619,14.8542476 136.729804,14.6515618 136.840954,14.4423379 C136.952104,14.2331139 137.007679,13.8342808 137.007679,13.2458384 C137.007679,12.5920135 136.8573,12.2454863 136.55654,12.2062568 L136.55654,12.2062568 L131.14287,12.2062568 C130.815958,12.2062568 130.593657,12.2749084 130.475969,12.4122117 C130.35828,12.5495149 130.299436,12.9189259 130.299436,13.5204448 C130.299436,14.0042752 130.345204,14.3246494 130.436739,14.4815674 C130.528275,14.6384854 130.711346,14.7692503 130.985952,14.8738623 C131.600548,15.1223158 131.907845,15.4623047 131.907845,15.8938291 C131.907845,16.0769001 131.790157,16.4299655 131.55478,16.9530254 L131.55478,16.9530254 L127.945667,25.2108335 L127.945667,8.20484863 C127.945667,7.82563021 127.906437,7.58698413 127.827978,7.4889104 C127.749519,7.39083667 127.546833,7.3417998 127.219921,7.3417998 L127.219921,7.3417998 L121.002046,7.3417998 C120.635905,7.3417998 120.436488,7.40718229 120.403797,7.53794727 C120.371105,7.66871224 120.35476,8.15908089 120.35476,9.00905322 C120.35476,9.41442464 120.364567,9.66941634 120.384182,9.77402832 C120.403797,9.8786403 120.498601,9.99632878 120.668596,10.1270938 C121.178579,10.4932357 121.433571,11.0947546 121.433571,11.9316504 L121.433571,11.9316504 L121.433571,35.4105015 C121.433571,35.6328019 121.417225,35.7962581 121.384534,35.9008701 C121.351843,36.0054821 121.178579,36.1820148 120.864743,36.4304683 C120.485525,36.7181512 120.295916,36.9731429 120.295916,37.1954434 L120.295916,37.1954434 L120.295916,38.1173364 C120.295916,38.7057788 120.531293,39 121.002046,39 L121.002046,39 L128.102585,39 Z" id="path-8"></path>
        <path d="M8.70934726,39.3530654 C10.200068,39.3530654 11.540409,38.6796258 12.7303702,37.3327466 C13.9203315,35.9858674 14.5153121,34.0505457 14.5153121,31.5267817 C14.5153121,29.3953127 14.1720541,27.4697984 13.4855379,25.750239 C12.7990218,24.0306796 11.3246467,21.2486548 9.06241269,17.4041646 C7.08786159,14.0696577 6.10058603,11.8335767 6.10058603,10.6959214 C6.10058603,9.78056657 6.42749847,9.32288916 7.08132334,9.32288916 C7.99667816,9.32288916 9.0362597,10.6370771 10.200068,13.2654531 C10.7492809,14.5077204 11.121961,15.2138512 11.3181085,15.3838457 C11.514256,15.5538402 11.9457804,15.6388374 12.6126817,15.6388374 C13.2011241,15.6388374 13.5639969,15.5996079 13.7013001,15.5211489 C13.8386034,15.4426899 13.907255,15.2792337 13.907255,15.0307803 C13.907255,14.9653978 13.881102,14.7561738 13.828796,14.4031084 L13.828796,14.4031084 L12.7695997,7.75370947 C12.7042172,7.33526156 12.6061435,7.06065511 12.4753785,6.92989014 C11.8346301,6.83835465 11.4684882,6.79258691 11.3769527,6.79258691 C10.9846578,6.79258691 10.6708219,6.96258138 10.4354449,7.30257031 C10.069303,7.82563021 9.84700254,8.1198514 9.76854355,8.18523389 C8.31705234,7.26987907 7.08132334,6.81220166 6.06135654,6.81220166 C4.58371234,6.81220166 3.33490683,7.50525602 2.31494004,8.89136475 C1.29497324,10.2774735 0.784989842,12.1343361 0.784989842,14.4619526 C0.784989842,16.5280392 1.21324513,18.5516272 2.06975571,20.5327166 C2.92626629,22.5138059 4.38756487,25.1650658 6.45365146,28.4864961 C7.31670029,29.8726048 8.04571502,31.1312177 8.64069565,32.2623347 C9.23567628,33.3934517 9.5331666,34.3709199 9.5331666,35.1947393 C9.5331666,35.6654932 9.3991325,36.0577881 9.13106431,36.371624 C8.86299611,36.68546 8.5131998,36.8423779 8.08167539,36.8423779 C6.91786712,36.8423779 5.7605971,35.2535835 4.60986533,32.0759946 C4.29602939,31.1867928 4.05411419,30.6179652 3.88411972,30.3695117 C3.71412526,30.1210583 3.15837412,29.9968315 2.21686631,29.9968315 C1.52381195,29.9968315 1.17728476,30.1864408 1.17728476,30.5656592 C1.17728476,30.6179652 1.24266725,31.0625661 1.37343222,31.8994619 L1.37343222,31.8994619 L2.35416953,38.4311724 C2.40647552,38.8496203 2.48820363,39.1078811 2.59935386,39.2059548 C2.71050408,39.3040286 2.92299717,39.3530654 3.2368331,39.3530654 C4.04757594,39.3530654 4.55755934,39.104612 4.7667833,38.6077051 C4.87139528,38.3592516 5.0086985,38.2350249 5.17869297,38.2350249 C5.37484043,38.2350249 5.64290862,38.3396369 5.98289756,38.5488608 C6.85902288,39.0849972 7.76783945,39.3530654 8.70934726,39.3530654 Z" id="path-9"></path>
        <path d="M23.3160999,39 C23.9568483,39 24.2772224,38.7776995 24.2772224,38.3330986 L24.2772224,38.3330986 L24.2772224,37.3327466 C24.2772224,36.9142987 24.1399192,36.6266157 23.8653128,36.4696978 C23.4076354,36.2081678 23.1787967,35.8420259 23.1787967,35.371272 L23.1787967,35.371272 L23.1787967,17.0707139 C23.819545,16.495348 24.4145257,16.207665 24.9637386,16.207665 C25.8006344,16.207665 26.2190823,16.7176484 26.2190823,17.7376152 L26.2190823,17.7376152 L26.2190823,36.3912388 C26.2190823,37.4635116 26.6113772,38.3330986 27.3959671,39 L27.3959671,39 L32.9077107,39 C33.2215467,39 33.4275015,38.9411558 33.5255752,38.8234673 C33.623649,38.7057788 33.6726858,38.3461751 33.6726858,37.7446562 C33.6726858,36.9862194 33.5223061,36.5154655 33.2215467,36.3323945 C32.8946342,36.1100941 32.731178,35.7897199 32.731178,35.371272 L32.731178,35.371272 L32.731178,16.5803452 C32.731178,15.2465425 32.3715743,14.1383093 31.652367,13.2556458 C30.9331596,12.3729822 29.8870398,11.9316504 28.5140076,11.9316504 C26.5133035,11.9316504 24.7348999,12.9123877 23.1787967,14.8738623 L23.1787967,14.8738623 L23.1787967,12.814314 C23.1787967,12.5658605 23.1461054,12.4024043 23.0807229,12.3239453 C23.0153404,12.2454863 22.845346,12.2062568 22.5707395,12.2062568 L22.5707395,12.2062568 L16.1763323,12.2062568 C15.8101904,12.2062568 15.6271194,12.4089425 15.6271194,12.814314 L15.6271194,12.814314 L15.6271194,13.8538955 C15.6271194,14.1546549 15.7513461,14.3638789 15.9997996,14.4815674 C16.4444005,14.6907913 16.666701,15.024242 16.666701,15.4819194 L16.666701,15.4819194 L16.666701,34.6651411 C16.666701,35.3320425 16.6209332,35.7635669 16.5293977,35.9597144 C16.4378623,36.1558618 16.2351765,36.3650858 15.9213406,36.5873862 C15.6859637,36.7443042 15.5682752,37.0123724 15.5682752,37.3915908 L15.5682752,37.3915908 L15.5682752,38.1173364 C15.5682752,38.5096313 15.6140429,38.7548157 15.7055784,38.8528894 C15.7971139,38.9509631 16.0128761,39 16.352865,39 L16.352865,39 L23.3160999,39 Z" id="path-10"></path>
        <path d="M49.2373773,39.2942212 C50.0742731,39.2942212 50.7705966,39.2026857 51.3263477,39.0196147 C51.8820989,38.8365438 52.2318952,38.6371272 52.3757366,38.421365 C52.5195781,38.2056028 52.5914988,37.8361917 52.5914988,37.3131318 C52.5914988,36.9339134 52.4607339,36.6462305 52.1992039,36.450083 C51.833062,36.1493236 51.6369145,35.9531761 51.6107615,35.8616406 L51.6107615,35.8616406 L51.6107615,17.9533774 C51.6107615,16.7634162 51.2446196,15.6715286 50.5123357,14.6777148 C49.7800519,13.683901 48.8025837,12.9777702 47.5799312,12.5593223 C46.3572787,12.1408743 44.9809774,11.9316504 43.4510272,11.9316504 C41.1234106,11.9316504 39.2371259,12.4612485 37.7921729,13.5204448 C36.3472199,14.5796411 35.6247435,15.9461351 35.6247435,17.6199268 C35.6247435,19.3983304 36.455101,20.2875322 38.1158162,20.2875322 C38.9265591,20.2875322 39.688265,20.1534981 40.4009341,19.8854299 C41.1136032,19.6173617 41.5712807,19.2937184 41.7739664,18.9145 C41.9766521,18.5352816 42.0779949,17.9010715 42.0779949,17.0118696 C42.0779949,15.4296134 42.6598991,14.6384854 43.8237073,14.6384854 C44.6736797,14.6384854 45.0986658,15.1615452 45.0986658,16.207665 L45.0986658,16.207665 L45.0986658,19.993311 C44.0656225,20.4902179 42.764511,21.0394308 41.1953314,21.6409497 C38.7238733,22.6086105 37.0631582,23.6645377 36.2131858,24.8087312 C35.3632135,25.9529247 34.9382274,28.0026657 34.9382274,30.9579541 C34.9382274,33.9132425 35.3926356,36.0414425 36.3014522,37.342554 C37.2102688,38.6436654 38.4950346,39.2942212 40.1557498,39.2942212 C40.9011102,39.2942212 41.6268558,39.130765 42.3329866,38.8038525 C43.0391175,38.4769401 43.9610106,37.7250415 45.0986658,36.5481567 C45.4778843,37.633506 46.0074824,38.3625208 46.6874603,38.7352009 C47.3674381,39.1078811 48.2174105,39.2942212 49.2373773,39.2942212 Z M43.5883304,35.0966655 C43.0129645,35.0966655 42.6075931,34.81879 42.3722161,34.2630388 C42.1368392,33.7072877 42.0191507,32.3767541 42.0191507,30.271438 C42.0191507,27.4076851 42.1629922,25.5671681 42.4506751,24.749887 C42.738358,23.9326059 43.6210216,23.1970529 45.0986658,22.543228 L45.0986658,22.543228 L45.0986658,32.585978 C45.0986658,34.2597697 44.5952207,35.0966655 43.5883304,35.0966655 Z" id="path-11"></path>
        <path d="M65.7073731,39.2942212 C67.3811648,39.2942212 68.7999648,38.3821355 69.963773,36.5579641 C71.1275813,34.7337927 71.7094854,31.1867928 71.7094854,25.9169644 C71.7094854,20.3463765 71.1308504,16.6228438 69.9735804,14.7463665 C68.8163104,12.8698891 67.387703,11.9316504 65.6877584,11.9316504 C64.2362672,11.9316504 62.8632349,12.60509 61.5686617,13.9519692 L61.5686617,13.9519692 L61.5686617,8.00870117 C61.5686617,7.56410026 61.339823,7.3417998 60.8821456,7.3417998 L60.8821456,7.3417998 L54.5465826,7.3417998 C54.2458232,7.3417998 54.0562139,7.38429842 53.977755,7.46929565 C53.899296,7.55429289 53.8600665,7.73409473 53.8600665,8.00870117 L53.8600665,8.00870117 L53.8600665,9.00905322 C53.8600665,9.32288916 53.9908315,9.50596012 54.2523614,9.55826611 C54.8015743,9.67595459 55.0761807,10.0682495 55.0761807,10.7351509 L55.0761807,10.7351509 L55.0761807,35.4889604 C55.0761807,36.0774028 54.8146508,36.4958507 54.2915909,36.7443042 C54.003908,36.8750692 53.8600665,37.0254489 53.8600665,37.1954434 L53.8600665,37.1954434 L53.8600665,38.5096313 C53.8600665,38.8365438 54.0104462,39 54.3112056,39 L54.3112056,39 L60.8821456,39 C61.339823,39 61.5686617,38.7515465 61.5686617,38.2546396 L61.5686617,38.2546396 L61.5686617,37.1954434 C62.9939999,38.5946286 64.3735704,39.2942212 65.7073731,39.2942212 Z M62.9416939,35.5870342 C62.5624755,35.5870342 62.2388322,35.4824222 61.970764,35.2731982 C61.7026958,35.0639743 61.5686617,34.8089826 61.5686617,34.5082231 L61.5686617,34.5082231 L61.5686617,16.8549517 C61.5686617,16.5280392 61.7157723,16.2468945 62.0099935,16.0115176 C62.3042147,15.7761406 62.6867022,15.6584521 63.1574561,15.6584521 C64.0335815,15.6584521 64.4716441,16.4757332 64.4716441,18.1102954 L64.4716441,18.1102954 L64.4716441,33.0567319 C64.4716441,33.7628628 64.33761,34.3611125 64.0695418,34.8514812 C63.8014736,35.3418499 63.4255243,35.5870342 62.9416939,35.5870342 Z" id="path-12"></path>
        <path d="M97.4518519,39 C97.7918408,39 97.9977956,38.9575014 98.0697164,38.8725042 C98.1416371,38.7875069 98.1775975,38.5880903 98.1775975,38.2742544 L98.1775975,38.2742544 L98.1775975,37.3915908 C98.1775975,36.8946839 97.9487588,36.5350802 97.4910813,36.3127798 C97.0334039,36.0774028 96.8045652,35.7112609 96.8045652,35.214354 L96.8045652,35.214354 L96.8045652,19.5421719 C96.8045652,18.2475986 97.0987864,17.600312 97.6872288,17.600312 C97.9226058,17.600312 98.1514445,17.8291507 98.3737449,18.2868281 C98.7398868,19.0844945 99.2629467,19.4833276 99.9429246,19.4833276 C101.30288,19.4833276 101.982858,18.2737516 101.982858,15.8545996 C101.982858,14.7300208 101.783442,13.7950513 101.384608,13.0496909 C100.985775,12.3043306 100.394064,11.9316504 99.6094739,11.9316504 C99.034108,11.9316504 98.507779,12.1474126 98.0304869,12.578937 C97.5531947,13.0104614 97.0660952,14.076196 96.5691883,15.7761406 C96.3468878,16.5607305 96.1572786,17.1099434 96.0003606,17.4237793 L96.0003606,17.4237793 L96.0003606,13.4027563 C96.0003606,12.8796965 95.9545929,12.5495149 95.8630574,12.4122117 C95.7715219,12.2749084 95.6015275,12.2062568 95.353074,12.2062568 L95.353074,12.2062568 L90.0570926,12.2062568 C89.7301801,12.2062568 89.4980723,12.2651011 89.3607691,12.3827896 C89.2234659,12.500478 89.1548143,12.7946992 89.1548143,13.2654531 C89.1548143,13.8277425 89.1809673,14.1644623 89.2332732,14.2756125 C89.2855792,14.3867628 89.4817267,14.5404116 89.8217156,14.7365591 C90.1355516,14.9327065 90.2924695,15.2530807 90.2924695,15.6976816 L90.2924695,15.6976816 L90.2924695,35.449731 C90.2924695,35.9074084 90.0701691,36.2473973 89.6255682,36.4696978 C89.4032677,36.5873862 89.2921175,36.8293014 89.2921175,37.1954434 L89.2921175,37.1954434 L89.2921175,38.2742544 C89.2921175,38.7580848 89.5471092,39 90.0570926,39 L90.0570926,39 L97.4518519,39 Z" id="path-13"></path>
        <path d="M108.115878,39.2746064 C109.554293,39.2746064 111.313082,38.3592516 113.392245,36.528542 C113.405321,36.5939245 113.411859,36.8881457 113.411859,37.4112056 L113.411859,37.4112056 L113.411859,37.9015742 C113.411859,38.3592516 113.48378,38.6567419 113.627622,38.7940452 C113.771463,38.9313484 114.032993,39 114.412211,39 L114.412211,39 L120.375094,39 C120.72816,39 120.934115,38.947694 120.992959,38.843082 C121.051803,38.7384701 121.081225,38.2938691 121.081225,37.5092793 C121.081225,36.9600664 120.865463,36.5677715 120.433939,36.3323945 C120.080873,36.1624001 119.90434,35.8616406 119.90434,35.4301162 L119.90434,35.4301162 L119.90434,12.9516172 C119.90434,12.6116283 119.874918,12.4024043 119.816074,12.3239453 C119.75723,12.2454863 119.590504,12.2062568 119.315898,12.2062568 L119.315898,12.2062568 L112.901876,12.2062568 C112.457275,12.2062568 112.234975,12.395866 112.234975,12.7750845 C112.234975,13.6381333 112.257859,14.1448476 112.303626,14.2952273 C112.349394,14.445607 112.483428,14.5861794 112.705729,14.7169443 C113.163406,14.9784743 113.392245,15.3446162 113.392245,15.8153701 L113.392245,15.8153701 L113.392245,33.9590103 C113.026103,34.5605291 112.489966,34.8612886 111.783835,34.8612886 C110.855404,34.8612886 110.391189,34.0178545 110.391189,32.3309863 L110.391189,32.3309863 L110.391189,13.0104614 C110.391189,12.657396 110.358497,12.4350955 110.293115,12.3435601 C110.227732,12.2520246 110.044661,12.2062568 109.743902,12.2062568 L109.743902,12.2062568 L103.643716,12.2062568 C103.264497,12.2062568 103.019313,12.2683702 102.908163,12.3925969 C102.797013,12.5168236 102.741438,12.7750845 102.741438,13.1673794 C102.754514,13.3242974 102.761052,13.5204448 102.761052,13.7558218 C102.761052,14.1873462 102.803551,14.47176 102.888548,14.6090632 C102.973545,14.7463665 103.1795,14.8869388 103.506413,15.0307803 C103.597948,15.0700098 103.728713,15.128854 103.898708,15.207313 L103.898708,15.207313 L103.898708,33.2724941 C103.898708,35.6262637 104.291002,37.2150581 105.075592,38.0388774 C105.860182,38.8626968 106.873611,39.2746064 108.115878,39.2746064 Z" id="path-14"></path>
    </defs>
    <g id="Page-1" stroke="none" stroke-width="1" fill="none" fill-rule="evenodd">
        <g id="Логотип-2" transform="translate(-0.630000, -5.740000)">
            <g id="Group" transform="translate(0.006406, 0.003176)" fill-rule="nonzero">
                <g id="P">
                    <use fill="#000000" xlink:href="#path-1"></use>
                    <use fill="#469E39" xlink:href="#path-1"></use>
                </g>
                <g id="i">
                    <use fill="#000000" xlink:href="#path-2"></use>
                    <use fill="#469E39" xlink:href="#path-2"></use>
                </g>
                <g id="t">
                    <use fill="#000000" xlink:href="#path-3"></use>
                    <use fill="#469E39" xlink:href="#path-3"></use>
                </g>
                <g id="o">
                    <use fill="#000000" xlink:href="#path-4"></use>
                    <use fill="#469E39" xlink:href="#path-4"></use>
                </g>
                <g id="m">
                    <use fill="#000000" xlink:href="#path-5"></use>
                    <use fill="#469E39" xlink:href="#path-5"></use>
                </g>
                <g id="n">
                    <use fill="#000000" xlink:href="#path-6"></use>
                    <use fill="#469E39" xlink:href="#path-6"></use>
                </g>
                <g id="i">
                    <use fill="#000000" xlink:href="#path-7"></use>
                    <use fill="#469E39" xlink:href="#path-7"></use>
                </g>
                <g id="k">
                    <use fill="#000000" xlink:href="#path-8"></use>
                    <use fill="#469E39" xlink:href="#path-8"></use>
                </g>
            </g>
            <g id="Group" transform="translate(139.125850, 0.003176)" fill-rule="nonzero">
                <g id="S">
                    <use fill="#000000" xlink:href="#path-9"></use>
                    <use fill="#86776F" xlink:href="#path-9"></use>
                </g>
                <g id="n">
                    <use fill="#000000" xlink:href="#path-10"></use>
                    <use fill="#86776F" xlink:href="#path-10"></use>
                </g>
                <g id="a">
                    <use fill="#000000" xlink:href="#path-11"></use>
                    <use fill="#86776F" xlink:href="#path-11"></use>
                </g>
                <g id="b">
                    <use fill="#000000" xlink:href="#path-12"></use>
                    <use fill="#86776F" xlink:href="#path-12"></use>
                </g>
                <g id="r">
                    <use fill="#000000" xlink:href="#path-13"></use>
                    <use fill="#86776F" xlink:href="#path-13"></use>
                </g>
                <g id="u">
                    <use fill="#000000" xlink:href="#path-14"></use>
                    <use fill="#86776F" xlink:href="#path-14"></use>
                </g>
            </g>
            <g id="Group" transform="translate(206.090000, 25.670000)">
                <path d="M9.4875,18.8168 C11.779,18.5024 11.1659,18.545 12.3961,17.4678 L12.4988,19.5435 L12.6319,20.4752 L12.8357,18.7488 L15.7773,18.1058 L15.7344,17.7696 L16.1145,17.7174 L16.2763,18.1037 L16.3515,16.3613 L16.1222,15.0565 L17.7532,14.2627 L17.8368,13.4912 L18.5973,13.3869 L18.3578,11.7098 C18.256,10.9974 18.4064,11.634 18.0878,11.1769 L17.7076,11.2291 L17.814,11.9745 L15.4225,12.8726 L16.1039,16.0074 L15.875,16.0404 C15.5459,13.7364 14.3685,10.3058 13.0157,9.5931 L11.1655,11.8915 L11.8105,13.3683 C12.2504,12.9831 12.8658,11.836 13.2515,12.6006 L14.1354,12.2354 L14.2021,12.4701 L13.6317,12.5484 L13.7116,13.1074 L14.417,12.6283 L14.2298,15.135 L12.4037,14.8069 L12.8029,17.6019 L12.6128,17.628 L11.2195,12.2891 C10.4328,12.597 9.2816,14.1302 8.9723,14.773 C8.6768,15.387 9.32,17.6441 9.4875,18.8168 L9.4875,18.8168 Z" id="Path" fill="#4D8B1B"></path>
                <path d="M2.2255,23.6133 L2.906,22.9499 L5.6588,19.1523 L5.5921,18.7406 L4.2387,19.0061 L6.1049,18.3166 L8.3582,14.982 C7.7567,15.0151 7.6563,14.8884 7.0008,14.9783 L6.6207,15.0305 C5.526,15.1807 4.2068,16.1784 3.4421,15.8467 L2.3709,16.4068 L2.756,16.5393 C2.644,16.8279 2.3114,17.4297 2.3509,17.7063 L2.4041,18.079 C2.5186,18.8805 2.7701,19.0587 3.0239,19.7039 L0.7945,22.0431 L2.2255,23.6133 Z" id="Path" fill="#35731D"></path>
                <path d="M0.564,25.5512 L2.2255,23.6133 L0.7945,22.0431 L3.0239,19.7039 C2.7701,19.0587 2.5186,18.8805 2.4041,18.079 L2.3509,17.7063 C2.3114,17.4297 2.644,16.8279 2.756,16.5393 L2.3709,16.4068 L3.4421,15.8467 L4.366,15.5299 L3.9364,13.8789 C3.7259,13.1826 3.9811,12.9626 3.8987,12.2255 L2.5562,12.3584 L1.2521,12.7274 L0.9517,13.3386 L1.712,13.2342 L1.0277,15.2281 L1.4945,15.2104 L0.5867,17.5684 L1.2171,17.5086 L0.7221,18.7127 L1.2065,19.1933 C1.1679,19.2977 0.7944,20.3793 0.7958,20.3896 C0.8976,21.1021 0.7472,20.4654 1.1067,20.9417 L0.058,23.2013 L0.9695,22.6675 L0.4043,24.4331 L1.0404,24.3817 L0.564,25.5512 L0.564,25.5512 Z" id="Path" fill="#2C641A"></path>
                <path d="M8.229,22.2194 C8.2007,22.5084 8.2671,22.7841 7.9287,22.8306 C7.4837,22.8917 7.124,22.6258 7.0617,22.1896 C6.9732,21.5699 7.3251,21.597 7.9808,21.576 L7.2252,21.9772 C7.538,22.7022 7.5802,22.642 8.229,22.2194 Z M8.6054,23.4977 L9.3164,21.6902 L9.1301,20.3858 C8.7542,20.715 8.4002,21.056 7.6891,21.1535 C7.3211,21.2041 7.0343,20.985 6.5667,20.8949 L6.0085,20.2442 L5.6512,21.8132 L4.8458,23.6877 L4.8235,23.4713 L3.8472,23.1195 L4.5135,22.61 L3.6082,22.1358 L2.906,22.9499 L2.2255,23.6133 L0.564,25.5512 L0.0049,26.978 L2.0848,25.3425 L2.193,25.9456 L3.6057,25.1338 L3.7189,25.7288 L5.4269,24.3139 L5.5084,24.7306 L6.9211,23.9188 L7.0107,24.3444 L8.6054,23.4977 Z" id="Shape" fill="#45821B"></path>
                <path d="M5.6588,19.1523 L5.6512,21.8132 L6.0085,20.2442 L6.0541,18.9129 L8.5142,15.5955 L8.7217,15.6886 L9.5407,19.1895 L9.4875,18.8168 C9.32,17.6441 8.6768,15.387 8.9723,14.773 C9.2816,14.1302 10.4328,12.597 11.2195,12.2891 L12.6128,17.628 L12.8029,17.6019 L12.4037,14.8069 L11.8105,13.3683 L11.1655,11.8915 L13.0157,9.5931 C14.3685,10.3058 15.5459,13.7364 15.875,16.0404 L16.1039,16.0074 L15.4225,12.8726 L13.4247,9.1234 L13.2283,9.0878 L15.4415,6.2204 L17.2133,3.6973 L16.9699,3.3507 L14.7913,5.7396 L15.0495,6.0741 C14.4969,6.5572 13.5298,8.3826 12.856,8.4751 C12.8488,8.4761 9.6422,7.5423 9.4113,7.4279 L8.6509,7.5323 L8.2568,7.6908 L10.4683,8.0428 L12.74,8.824 L11.0246,11.4503 L9.7536,11.1807 L7.6092,11.095 L5.5446,11.5684 L4.7842,11.6727 L6.7119,11.5981 L7.8525,11.4416 L10.5961,11.6114 L10.7678,11.752 L8.6179,14.8341 L6.9752,14.7445 L6.5941,14.8442 L4.366,15.5299 L3.4421,15.8467 C4.2068,16.1784 5.526,15.1807 6.6207,15.0305 L7.0008,14.9783 C7.6563,14.8884 7.7567,15.0151 8.3582,14.982 L6.1049,18.3166 L4.2387,19.0061 L5.5921,18.7406 L5.6588,19.1523 L5.6588,19.1523 Z" id="Path" fill="#6EA919"></path>
                <polygon id="Path" fill="#53931C" points="15.4225 12.8726 17.814 11.9745 17.7076 11.2291 18.0878 11.1769 15.4415 6.2204 13.2283 9.0878 13.4247 9.1234"></polygon>
                <path d="M4.366,15.5299 L6.5941,14.8442 L6.9752,14.7445 L8.6179,14.8341 L10.7678,11.752 L10.5961,11.6114 L7.8525,11.4416 C8.0457,12.7939 8.2155,14.0517 6.8944,14.233 C6.6577,14.2654 6.0935,14.054 6.0275,13.592 L5.9477,13.033 C5.8433,12.3023 6.5465,12.3657 6.7119,11.5981 L4.7842,11.6727 L4.2139,11.751 L2.5562,12.3584 L3.8987,12.2255 C3.9811,12.9626 3.7259,13.1826 3.9364,13.8789 L4.366,15.5299 L4.366,15.5299 Z" id="Path" fill="#35731D"></path>
                <polygon id="Path" fill="#1C5419" points="2.5562 12.3584 4.2139 11.751 4.6587 8.0801 3.5181 8.2367 3.4861 8.0231 7.1035 7.5546 8.054 7.4242 7.9513 5.3483 6.6206 5.531 5.3165 5.8999 5.4187 6.7677 2.8217 7.9866 3.309 8.8988 1.8854 10.5735 2.332 11.0304 1.2521 12.7274"></polygon>
                <path d="M9.3164,21.6902 L9.5369,20.52 L9.5407,19.1895 L8.7217,15.6886 L8.5142,15.5955 L6.0541,18.9129 L6.0085,20.2442 L6.5667,20.8949 C7.0343,20.985 7.3211,21.2041 7.6891,21.1535 C8.4002,21.056 8.7542,20.715 9.1301,20.3858 L9.3164,21.6902 Z" id="Path" fill="#53931C"></path>
                <polygon id="Path" fill="#427C1A" points="17.7532 14.2627 16.1222 15.0565 16.3515 16.3613 16.2763 18.1037 16.1145 17.7174 15.7344 17.7696 15.7773 18.1058 12.8357 18.7488 12.6319 20.4752 12.5178 22.3908 13.8713 20.8476 14.4706 21.1693 15.5723 19.056 16.4057 19.405 16.9062 16.4621 17.8884 16.5246"></polygon>
                <path d="M14.7913,5.7396 L13.1374,5.0166 C13.2572,5.8552 13.2662,6.8989 12.4531,7.0105 L12.0728,7.0627 C11.6783,7.1168 11.0444,6.648 11.0158,6.4478 C10.8644,5.3878 11.5653,5.0424 12.7306,4.8825 L10.1261,4.2899 C9.9588,5.6294 9.0378,4.8129 9.4113,7.4279 C9.6422,7.5423 12.8488,8.4761 12.856,8.4751008 C13.5298,8.3826 14.4969,6.5572 15.0495,6.0741 L14.7913,5.7396 L14.7913,5.7396 Z" id="Path" fill="#35731D"></path>
                <polygon id="Path" fill="#356917" points="12.5178 22.3908 12.6319 20.4752 12.4988 19.5435 9.5369 20.52 9.3164 21.6902 8.6054 23.4977 8.6955 24.0676 10.203 22.7221 10.5168 23.2478 12.0083 21.9183"></polygon>
                <path d="M7.997,8.382 L8.3983,8.5454 L8.2137,9.693 L7.613,9.7646 L7.6092,11.095 L9.7536,11.1807 C9.8771,10.9307 10.7059,9.7057 10.6813,9.5335 C10.5658,8.7255 10.2966,8.9998 10.0882,8.095 L10.4683,8.0428 L8.2568,7.6908 L8.6509,7.5323 L8.054,7.4242 L7.1035,7.5546 L6.1529,7.6851 L6.1796,7.8714 L8.1048,7.7419 L7.7671,8.062 L7.997,8.382 L7.997,8.382 Z" id="Path" fill="#3B7A1D"></path>
                <path d="M4.6587,8.0801 L5.9894,7.8975 C6.0585,9.1033 5.1161,8.5682 5.5446,11.5684 L7.6092,11.095 L7.613,9.7646 C7.4706,9.6083 7.1688,9.369 7.1529,9.2577 C7.136,9.1392 7.5046,8.6613 7.6168,8.4341 L7.997,8.382 L7.7671,8.062 L8.1048,7.7419 L6.1796,7.8714 L6.1529,7.6851 L7.1035,7.5546 L3.4861,8.0231 L3.5181,8.2367 L4.6587,8.0801 L4.6587,8.0801 Z" id="Path" fill="#316D1C"></path>
                <path d="M12.4037,14.8069 L14.2298,15.135 L14.417,12.6283 L13.7116,13.1074 L13.6317,12.5484 L14.2021,12.4701 L14.1354,12.2354 L13.2515,12.6006 C12.8658,11.836 12.2504,12.9831 11.8105,13.3683 L12.4037,14.8069 L12.4037,14.8069 Z" id="Path" fill="#579627"></path>
                <path d="M10.4683,8.0428 L10.0882,8.095 C10.2966,8.9998 10.5658,8.7255 10.6813,9.5335 C10.7059,9.7057 9.8771,10.9307 9.7536,11.1807 L11.0246,11.4503 L12.74,8.824 L10.4683,8.0428 L10.4683,8.0428 Z" id="Path" fill="#316D1C"></path>
                <path d="M8.054,7.4242 L8.6509,7.5323 L9.4113,7.4279 C9.0378,4.8129 9.9588,5.6294 10.1261,4.2899 L8.0326,4.3947 L7.9201,5.1398 L6.6206,5.531 L7.9513,5.3483 L8.054,7.4242 Z" id="Path" fill="#2B691C"></path>
                <path d="M12.4988,19.5435 L12.3961,17.4678 C11.1659,18.545 11.779,18.5024 9.4875,18.8168 L9.5407,19.1895 L9.5369,20.52 L12.4988,19.5435 L12.4988,19.5435 Z" id="Path" fill="#427C1A"></path>
                <polygon id="Path" fill="#57991D" points="5.6512 21.8132 5.6588 19.1523 2.906 22.9499 3.6082 22.1358 4.5135 22.61 3.8472 23.1195 4.8235 23.4713 4.8458 23.6877"></polygon>
                <path d="M7.8525,11.4416 L6.7119,11.5981 C6.5465,12.3657 5.8433,12.3023 5.9477,13.033 L6.0275,13.592 C6.0935,14.054 6.6577,14.2654 6.8944,14.233 C8.2155,14.0517 8.0457,12.7939 7.8525,11.4416 Z" id="Path" fill="#36781B"></path>
                <path d="M4.7842,11.6727 L5.5446,11.5684 C5.1161,8.5682 6.0585,9.1033 5.9894,7.8975 L4.6587,8.0801 L4.2139,11.751 L4.7842,11.6727 Z" id="Path" fill="#255918"></path>
                <path d="M13.1374,5.0166 L12.7306,4.8825 C11.5653,5.0424 10.8644,5.3878 11.0158,6.4478 C11.0444,6.648 11.6783,7.1168 12.0728,7.0627 L12.4531,7.0105 C13.2662,6.8989 13.2572,5.8552 13.1374,5.0166 L13.1374,5.0166 Z" id="Path" fill="#3B7A1D"></path>
                <path d="M16.9699,3.3507 L17.2133,3.6973 C18.0215,3.1248 20.3198,1.2052 20.126,0.0081 L16.9699,3.3507 Z" id="Path" fill="#716C32"></path>
                <path d="M7.613,9.7646 L8.2137,9.693 L8.3983,8.5454 L7.997,8.382 L7.6168,8.4341 C7.5046,8.6613 7.136,9.1392 7.1529,9.2577 C7.1688,9.369 7.4706,9.6083 7.613,9.7646 L7.613,9.7646 Z" id="Path" fill="#6A9752"></path>
                <path d="M8.229,22.2194 C7.5802,22.642 7.538,22.7022 7.2252,21.9772 L7.9808,21.576 C7.3251,21.597 6.9732,21.5699 7.0617,22.1896 C7.124,22.6258 7.4837,22.8917 7.9287,22.8306 C8.2671,22.7841 8.2007,22.5084 8.229,22.2194 Z" id="Path" fill="#73A96C"></path>
            </g>
            <path d="M216.1555,39.163 C216.285,38.2434 216.617,33.5388 216.4709,32.8741" id="Path"></path>
        </g>
    </g>
</svg>
